<svg width="35" height="35" viewBox="0 0 35 35" fill="none" xmlns="http://www.w3.org/2000/svg">
<path d="M9.27588 18.7422C9.27588 17.4924 10.2889 16.4793 11.5387 16.4793H15.1246C16.3745 16.4793 17.3875 17.4924 17.3875 18.7422V24.1761C17.3875 25.426 16.3745 26.439 15.1246 26.439H11.5387C10.2889 26.439 9.27588 25.426 9.27588 24.1761V18.7422ZM9.04733 27.053C9.04733 30.3349 11.7077 32.9191 14.9896 32.9191H18.5944C21.9268 32.9191 24.6287 30.2172 24.6287 26.8848V15.9544C24.6287 12.6219 21.9268 9.92004 18.5944 9.92004H14.0686C11.4158 9.92004 9.26004 12.1361 9.24118 14.7882V2H2V32.7682H9.04733V27.053Z" fill="white"/>
<path d="M33.6798 26.439H27.3438V32.775H33.6798V26.439Z" fill="white"/>
</svg>
