<svg width="184" height="119" viewBox="0 0 184 119" fill="none" xmlns="http://www.w3.org/2000/svg">
<mask id="path-1-inside-1_1665_552" fill="white">
<path d="M182.783 59.402L179.701 47.0759V47.0674L179.692 47.0418L176.718 38.6256C176.709 38.6001 176.691 38.5831 176.682 38.566C176.673 38.5405 176.664 38.5234 176.646 38.4979L167.932 27.884L167.923 27.8755C167.914 27.8669 167.904 27.8584 167.904 27.8499L167.886 27.8329L160.067 20.7967C160.058 20.7882 160.04 20.7797 160.022 20.7711C160.013 20.7626 160.004 20.7456 159.986 20.7371L147.557 13.5476C147.557 13.5476 147.557 13.5476 147.548 13.5476L147.521 13.5305L137.369 8.59839C137.36 8.58987 137.342 8.58987 137.333 8.58987L137.297 8.57283L124.063 4.79068C124.054 4.79068 124.054 4.79068 124.045 4.79068L124.009 4.78216L114.662 3.25737H114.653L103.77 1.57925C103.761 1.57925 103.761 1.57925 103.752 1.57925L103.715 1.57073L92.0275 1H92.0184H92.0094C92.0094 1 92.0094 1 92.0004 1H91.9823L80.2852 1.57925C80.2762 1.57925 80.2762 1.57925 80.2762 1.57925H80.24L69.3475 3.26589L59.9827 4.79068C59.9736 4.79068 59.9736 4.79919 59.9646 4.79919H59.9284L46.7037 8.58987C46.6947 8.58987 46.6857 8.59839 46.6676 8.60691L46.6224 8.61542L36.4711 13.5476C36.4711 13.5476 36.4711 13.5476 36.4621 13.5476L36.4349 13.5561L24.0057 20.7456C23.9876 20.7541 23.9876 20.7626 23.9696 20.7797C23.9605 20.7882 23.9424 20.7967 23.9244 20.8052L16.1233 27.8329C16.1143 27.8414 16.1143 27.8414 16.1143 27.8499C16.1052 27.8584 16.0962 27.8669 16.0962 27.8669L16.0872 27.8755L7.35507 38.4979C7.337 38.5149 7.337 38.5405 7.31892 38.566C7.30988 38.5831 7.2918 38.6001 7.28276 38.6256L4.30878 47.0418V47.0503L4.29975 47.0759L1.66023 57.6642L1.22634 59.402L1.19922 59.4957L1.22634 59.5894L4.29975 71.9154V71.924L4.30878 71.9495L7.28276 80.3657C7.28276 80.3742 7.2918 80.3742 7.2918 80.3742C7.30084 80.3912 7.30988 80.4083 7.31892 80.4253C7.32796 80.4423 7.337 80.4594 7.34604 80.4764C7.34604 80.4849 7.34604 80.4849 7.35507 80.4934L16.0691 91.1073C16.0781 91.1159 16.0781 91.1159 16.0872 91.1244L16.1143 91.1499C16.1143 91.1499 16.1143 91.1499 16.1143 91.1584L23.9334 98.1946C23.9424 98.2031 23.9605 98.2117 23.9786 98.2202C23.9876 98.2287 23.9967 98.2457 24.0148 98.2457L36.444 105.435C36.444 105.435 36.444 105.435 36.453 105.435L36.4801 105.452L46.6314 110.384C46.6405 110.393 46.6495 110.384 46.6585 110.393L46.6857 110.401C46.6947 110.401 46.6947 110.41 46.7037 110.41L59.9375 114.192C59.9465 114.192 59.9556 114.192 59.9556 114.192L59.9827 114.201H60.0007L69.3385 115.725L80.231 117.404C80.24 117.404 80.2491 117.404 80.2672 117.404H80.2852L91.9732 117.974C91.9823 117.974 91.9913 117.974 92.0004 117.974C92.0094 117.974 92.0184 117.974 92.0275 117.974L103.715 117.404H103.725C103.743 117.404 103.752 117.404 103.77 117.404L114.662 115.725L123.991 114.201H124.009C124.018 114.201 124.018 114.192 124.027 114.192L124.063 114.184L137.297 110.401C137.306 110.401 137.315 110.384 137.333 110.384L137.369 110.376H137.378L147.53 105.444C147.53 105.444 147.53 105.444 147.539 105.444L147.566 105.435L159.995 98.2457C160.013 98.2372 160.013 98.2287 160.031 98.2202C160.049 98.2117 160.058 98.2031 160.076 98.1946L167.895 91.1584C167.905 91.1499 167.905 91.1414 167.914 91.1414L167.941 91.1159L176.655 80.502C176.655 80.4935 176.655 80.4934 176.664 80.4849C176.673 80.4679 176.682 80.4509 176.691 80.4338C176.7 80.4168 176.709 80.3997 176.718 80.3827C176.718 80.3742 176.727 80.3742 176.727 80.3742L179.701 71.958V71.9495L179.71 71.924L182.792 59.5979L182.82 59.5042L182.783 59.402Z"/>
</mask>
<path d="M182.783 59.402L179.701 47.0759V47.0674L179.692 47.0418L176.718 38.6256C176.709 38.6001 176.691 38.5831 176.682 38.566C176.673 38.5405 176.664 38.5234 176.646 38.4979L167.932 27.884L167.923 27.8755C167.914 27.8669 167.904 27.8584 167.904 27.8499L167.886 27.8329L160.067 20.7967C160.058 20.7882 160.04 20.7797 160.022 20.7711C160.013 20.7626 160.004 20.7456 159.986 20.7371L147.557 13.5476C147.557 13.5476 147.557 13.5476 147.548 13.5476L147.521 13.5305L137.369 8.59839C137.36 8.58987 137.342 8.58987 137.333 8.58987L137.297 8.57283L124.063 4.79068C124.054 4.79068 124.054 4.79068 124.045 4.79068L124.009 4.78216L114.662 3.25737H114.653L103.77 1.57925C103.761 1.57925 103.761 1.57925 103.752 1.57925L103.715 1.57073L92.0275 1H92.0184H92.0094C92.0094 1 92.0094 1 92.0004 1H91.9823L80.2852 1.57925C80.2762 1.57925 80.2762 1.57925 80.2762 1.57925H80.24L69.3475 3.26589L59.9827 4.79068C59.9736 4.79068 59.9736 4.79919 59.9646 4.79919H59.9284L46.7037 8.58987C46.6947 8.58987 46.6857 8.59839 46.6676 8.60691L46.6224 8.61542L36.4711 13.5476C36.4711 13.5476 36.4711 13.5476 36.4621 13.5476L36.4349 13.5561L24.0057 20.7456C23.9876 20.7541 23.9876 20.7626 23.9696 20.7797C23.9605 20.7882 23.9424 20.7967 23.9244 20.8052L16.1233 27.8329C16.1143 27.8414 16.1143 27.8414 16.1143 27.8499C16.1052 27.8584 16.0962 27.8669 16.0962 27.8669L16.0872 27.8755L7.35507 38.4979C7.337 38.5149 7.337 38.5405 7.31892 38.566C7.30988 38.5831 7.2918 38.6001 7.28276 38.6256L4.30878 47.0418V47.0503L4.29975 47.0759L1.66023 57.6642L1.22634 59.402L1.19922 59.4957L1.22634 59.5894L4.29975 71.9154V71.924L4.30878 71.9495L7.28276 80.3657C7.28276 80.3742 7.2918 80.3742 7.2918 80.3742C7.30084 80.3912 7.30988 80.4083 7.31892 80.4253C7.32796 80.4423 7.337 80.4594 7.34604 80.4764C7.34604 80.4849 7.34604 80.4849 7.35507 80.4934L16.0691 91.1073C16.0781 91.1159 16.0781 91.1159 16.0872 91.1244L16.1143 91.1499C16.1143 91.1499 16.1143 91.1499 16.1143 91.1584L23.9334 98.1946C23.9424 98.2031 23.9605 98.2117 23.9786 98.2202C23.9876 98.2287 23.9967 98.2457 24.0148 98.2457L36.444 105.435C36.444 105.435 36.444 105.435 36.453 105.435L36.4801 105.452L46.6314 110.384C46.6405 110.393 46.6495 110.384 46.6585 110.393L46.6857 110.401C46.6947 110.401 46.6947 110.41 46.7037 110.41L59.9375 114.192C59.9465 114.192 59.9556 114.192 59.9556 114.192L59.9827 114.201H60.0007L69.3385 115.725L80.231 117.404C80.24 117.404 80.2491 117.404 80.2672 117.404H80.2852L91.9732 117.974C91.9823 117.974 91.9913 117.974 92.0004 117.974C92.0094 117.974 92.0184 117.974 92.0275 117.974L103.715 117.404H103.725C103.743 117.404 103.752 117.404 103.77 117.404L114.662 115.725L123.991 114.201H124.009C124.018 114.201 124.018 114.192 124.027 114.192L124.063 114.184L137.297 110.401C137.306 110.401 137.315 110.384 137.333 110.384L137.369 110.376H137.378L147.53 105.444C147.53 105.444 147.53 105.444 147.539 105.444L147.566 105.435L159.995 98.2457C160.013 98.2372 160.013 98.2287 160.031 98.2202C160.049 98.2117 160.058 98.2031 160.076 98.1946L167.895 91.1584C167.905 91.1499 167.905 91.1414 167.914 91.1414L167.941 91.1159L176.655 80.502C176.655 80.4935 176.655 80.4934 176.664 80.4849C176.673 80.4679 176.682 80.4509 176.691 80.4338C176.7 80.4168 176.709 80.3997 176.718 80.3827C176.718 80.3742 176.727 80.3742 176.727 80.3742L179.701 71.958V71.9495L179.71 71.924L182.792 59.5979L182.82 59.5042L182.783 59.402Z" fill="#121212" stroke="white" stroke-width="0.904627" mask="url(#path-1-inside-1_1665_552)"/>
<path d="M176.907 38.6086L168.121 27.9181L160.248 20.8308L147.728 13.5902L137.505 8.62394L124.18 4.80771L114.752 3.27441L103.778 1.57925L92 1L80.2216 1.57925L69.2477 3.27441L59.8286 4.80771L46.5045 8.62394L36.2809 13.5902L23.7523 20.8308L15.8789 27.9181L7.10162 38.6086L4.10053 47.0844L1 59.4957L4.10053 71.9154L7.10162 80.3912L15.8789 91.0818L23.7523 98.1691L36.2809 105.41L46.5045 110.376L59.8286 114.184L69.2477 115.725L80.2216 117.421L92 118L103.778 117.421L114.752 115.725L124.18 114.184L137.505 110.376L147.728 105.41L160.248 98.1691L168.121 91.0818L176.907 80.3912L179.899 71.9154L183 59.4957L179.899 47.0844L176.907 38.6086Z" fill="#121212" stroke="white" stroke-width="0.452314" stroke-miterlimit="10"/>
<path d="M108.658 48.7454L112.401 63.891" stroke="white" stroke-width="0.452314" stroke-linecap="round" stroke-linejoin="round"/>
<path d="M75.3478 48.7454L71.6055 63.891" stroke="white" stroke-width="0.452314" stroke-linecap="round" stroke-linejoin="round"/>
<path d="M69.2483 15.4392L48.0508 22.3476" stroke="white" stroke-width="0.452314" stroke-linecap="round" stroke-linejoin="round"/>
<path d="M114.752 15.4392L135.949 22.3476" stroke="white" stroke-width="0.452314" stroke-linecap="round" stroke-linejoin="round"/>
<path d="M124.18 46.3523L131.402 60.9528" stroke="white" stroke-width="0.452314" stroke-linecap="round" stroke-linejoin="round"/>
<path d="M59.8272 46.3523L52.5957 60.9528" stroke="white" stroke-width="0.452314" stroke-linecap="round" stroke-linejoin="round"/>
<path d="M131.402 26.4365L147.728 37.57" stroke="white" stroke-width="0.452314" stroke-linecap="round" stroke-linejoin="round"/>
<path d="M52.5955 26.4365L36.2793 37.57" stroke="white" stroke-width="0.452314" stroke-linecap="round" stroke-linejoin="round"/>
<path d="M92 49.5635V64.888" stroke="white" stroke-width="0.452314" stroke-linecap="round" stroke-linejoin="round"/>
<path d="M91.9989 11.5376L68.4512 13.1646" stroke="white" stroke-width="0.452314" stroke-linecap="round" stroke-linejoin="round"/>
<path d="M92 11.5376L115.557 13.1646" stroke="white" stroke-width="0.452314" stroke-linecap="round" stroke-linejoin="round"/>
<path d="M68.4512 92.2573L91.9989 93.4158" stroke="white" stroke-width="0.452314" stroke-linecap="round" stroke-linejoin="round"/>
<path d="M124.18 29.9543L137.504 42.5445" stroke="white" stroke-width="0.452314" stroke-linecap="round" stroke-linejoin="round"/>
<path d="M46.5059 42.5445L59.83 29.9543" stroke="white" stroke-width="0.452314" stroke-linecap="round" stroke-linejoin="round"/>
<path d="M137.504 42.5439L147.728 56.2841" stroke="white" stroke-width="0.452314" stroke-linecap="round" stroke-linejoin="round"/>
<path d="M92 93.4158L115.557 92.2573" stroke="white" stroke-width="0.452314" stroke-linecap="round" stroke-linejoin="round"/>
<path d="M36.2793 56.2841L46.5029 42.5439" stroke="white" stroke-width="0.452314" stroke-linecap="round" stroke-linejoin="round"/>
<path d="M92 11.5376L114.752 15.439" stroke="white" stroke-width="0.452314" stroke-linecap="round" stroke-linejoin="round"/>
<path d="M92.0003 11.5376L69.248 15.439" stroke="white" stroke-width="0.452314" stroke-linecap="round" stroke-linejoin="round"/>
<path d="M112.402 17.5603L131.403 26.4364" stroke="white" stroke-width="0.452314" stroke-linecap="round" stroke-linejoin="round"/>
<path d="M71.6056 17.5603L52.5957 26.4364" stroke="white" stroke-width="0.452314" stroke-linecap="round" stroke-linejoin="round"/>
<path d="M135.949 22.3469L154.155 31.7853" stroke="white" stroke-width="0.452314" stroke-linecap="round" stroke-linejoin="round"/>
<path d="M48.0492 22.3469L29.8438 31.7853" stroke="white" stroke-width="0.452314" stroke-linecap="round" stroke-linejoin="round"/>
<path d="M36.2806 37.5696L23.752 50.2023" stroke="white" stroke-width="0.452314" stroke-linecap="round" stroke-linejoin="round"/>
<path d="M147.729 37.5696L160.248 50.2023" stroke="white" stroke-width="0.452314" stroke-linecap="round" stroke-linejoin="round"/>
<path d="M114.752 32.6465L124.18 46.3525" stroke="white" stroke-width="0.452314" stroke-linecap="round" stroke-linejoin="round"/>
<path d="M69.2472 32.6465L59.8281 46.3525" stroke="white" stroke-width="0.452314" stroke-linecap="round" stroke-linejoin="round"/>
<path d="M92 64.8882V79.8464" stroke="white" stroke-width="0.452314" stroke-linecap="round" stroke-linejoin="round"/>
<path d="M68.4536 13.1648L46.5059 17.9606" stroke="white" stroke-width="0.452314" stroke-linecap="round" stroke-linejoin="round"/>
<path d="M115.557 13.1648L137.504 17.9606" stroke="white" stroke-width="0.452314" stroke-linecap="round" stroke-linejoin="round"/>
<path d="M112.402 63.8914L114.753 78.7304" stroke="white" stroke-width="0.452314" stroke-linecap="round" stroke-linejoin="round"/>
<path d="M71.6073 63.8914L69.248 78.7304" stroke="white" stroke-width="0.452314" stroke-linecap="round" stroke-linejoin="round"/>
<path d="M52.5976 60.9524L48.0508 75.4592" stroke="white" stroke-width="0.452314" stroke-linecap="round" stroke-linejoin="round"/>
<path d="M131.402 60.9524L135.949 75.4592" stroke="white" stroke-width="0.452314" stroke-linecap="round" stroke-linejoin="round"/>
<path d="M103.777 34.3411L108.659 48.7456" stroke="white" stroke-width="0.452314" stroke-linecap="round" stroke-linejoin="round"/>
<path d="M80.2219 34.3411L75.3496 48.7456" stroke="white" stroke-width="0.452314" stroke-linecap="round" stroke-linejoin="round"/>
<path d="M69.248 78.7302L92.0003 79.8461" stroke="white" stroke-width="0.452314" stroke-linecap="round" stroke-linejoin="round"/>
<path d="M69.248 103.562L92.0003 104.677" stroke="white" stroke-width="0.452314" stroke-linecap="round" stroke-linejoin="round"/>
<path d="M92 79.8461L114.752 78.7302" stroke="white" stroke-width="0.452314" stroke-linecap="round" stroke-linejoin="round"/>
<path d="M92 104.677L114.752 103.562" stroke="white" stroke-width="0.452314" stroke-linecap="round" stroke-linejoin="round"/>
<path d="M92.0003 11.5376L69.248 10.8987" stroke="white" stroke-width="0.452314" stroke-linecap="round" stroke-linejoin="round"/>
<path d="M92 11.5376L114.752 10.8987" stroke="white" stroke-width="0.452314" stroke-linecap="round" stroke-linejoin="round"/>
<path d="M92 34.9207V49.5637" stroke="white" stroke-width="0.452314" stroke-linecap="round" stroke-linejoin="round"/>
<path d="M29.8438 70.255L36.2798 56.2849" stroke="white" stroke-width="0.452314" stroke-linecap="round" stroke-linejoin="round"/>
<path d="M147.729 56.2849L154.156 70.255" stroke="white" stroke-width="0.452314" stroke-linecap="round" stroke-linejoin="round"/>
<path d="M108.658 19.3748L124.179 29.9546" stroke="white" stroke-width="0.452314" stroke-linecap="round" stroke-linejoin="round"/>
<path d="M59.8281 29.9546L75.3488 19.3748" stroke="white" stroke-width="0.452314" stroke-linecap="round" stroke-linejoin="round"/>
<path d="M46.5059 88.8677L68.4536 92.258" stroke="white" stroke-width="0.452314" stroke-linecap="round" stroke-linejoin="round"/>
<path d="M115.557 92.258L137.504 88.8677" stroke="white" stroke-width="0.452314" stroke-linecap="round" stroke-linejoin="round"/>
<path d="M154.154 31.7854L168.12 43.1148" stroke="white" stroke-width="0.452314" stroke-linecap="round" stroke-linejoin="round"/>
<path d="M29.8448 31.7854L15.8789 43.1148" stroke="white" stroke-width="0.452314" stroke-linecap="round" stroke-linejoin="round"/>
<path d="M91.9984 11.5376L71.6055 17.5601" stroke="white" stroke-width="0.452314" stroke-linecap="round" stroke-linejoin="round"/>
<path d="M92 11.5376L112.402 17.5601" stroke="white" stroke-width="0.452314" stroke-linecap="round" stroke-linejoin="round"/>
<path d="M137.504 17.9604L156.351 25.5844" stroke="white" stroke-width="0.452314" stroke-linecap="round" stroke-linejoin="round"/>
<path d="M46.5054 17.9604L27.6582 25.5844" stroke="white" stroke-width="0.452314" stroke-linecap="round" stroke-linejoin="round"/>
<path d="M160.248 50.2024L168.121 63.4655" stroke="white" stroke-width="0.452314" stroke-linecap="round" stroke-linejoin="round"/>
<path d="M23.7523 50.2024L15.8789 63.4655" stroke="white" stroke-width="0.452314" stroke-linecap="round" stroke-linejoin="round"/>
<path d="M48.0508 75.4592L69.2483 78.7303" stroke="white" stroke-width="0.452314" stroke-linecap="round" stroke-linejoin="round"/>
<path d="M48.0508 100.282L69.2483 103.562" stroke="white" stroke-width="0.452314" stroke-linecap="round" stroke-linejoin="round"/>
<path d="M114.752 78.7303L135.949 75.4592" stroke="white" stroke-width="0.452314" stroke-linecap="round" stroke-linejoin="round"/>
<path d="M114.752 103.562L135.949 100.282" stroke="white" stroke-width="0.452314" stroke-linecap="round" stroke-linejoin="round"/>
<path d="M114.752 10.8987L135.949 13.5735" stroke="white" stroke-width="0.452314" stroke-linecap="round" stroke-linejoin="round"/>
<path d="M69.2483 10.8987L48.0508 13.5735" stroke="white" stroke-width="0.452314" stroke-linecap="round" stroke-linejoin="round"/>
<path d="M80.2219 20.7712L69.248 32.6459" stroke="white" stroke-width="0.452314" stroke-linecap="round" stroke-linejoin="round"/>
<path d="M103.777 20.7712L114.751 32.6459" stroke="white" stroke-width="0.452314" stroke-linecap="round" stroke-linejoin="round"/>
<path d="M15.8789 43.1157L7.10156 55.5611" stroke="white" stroke-width="0.452314" stroke-linecap="round" stroke-linejoin="round"/>
<path d="M168.123 43.1157L176.909 55.5611" stroke="white" stroke-width="0.452314" stroke-linecap="round" stroke-linejoin="round"/>
<path d="M156.35 25.5847L170.813 35.5171" stroke="white" stroke-width="0.452314" stroke-linecap="round" stroke-linejoin="round"/>
<path d="M27.6584 25.5847L13.1953 35.5171" stroke="white" stroke-width="0.452314" stroke-linecap="round" stroke-linejoin="round"/>
<path d="M92 79.8462V93.416" stroke="white" stroke-width="0.452314" stroke-linecap="round" stroke-linejoin="round"/>
<path d="M69.2466 78.7302L68.4512 92.2574" stroke="white" stroke-width="0.452314" stroke-linecap="round" stroke-linejoin="round"/>
<path d="M114.752 78.7302L115.556 92.2574" stroke="white" stroke-width="0.452314" stroke-linecap="round" stroke-linejoin="round"/>
<path d="M91.9984 11.5375L71.6055 8.77759" stroke="white" stroke-width="0.452314" stroke-linecap="round" stroke-linejoin="round"/>
<path d="M135.949 75.4592L137.504 88.8671" stroke="white" stroke-width="0.452314" stroke-linecap="round" stroke-linejoin="round"/>
<path d="M48.0516 75.4592L46.5059 88.8671" stroke="white" stroke-width="0.452314" stroke-linecap="round" stroke-linejoin="round"/>
<path d="M92 11.5375L112.402 8.77759" stroke="white" stroke-width="0.452314" stroke-linecap="round" stroke-linejoin="round"/>
<path d="M137.504 88.8675L156.351 83.4839" stroke="white" stroke-width="0.452314" stroke-linecap="round" stroke-linejoin="round"/>
<path d="M75.3496 19.3745L92.0002 11.5376" stroke="white" stroke-width="0.452314" stroke-linecap="round" stroke-linejoin="round"/>
<path d="M27.6582 83.4837L29.8457 70.2546" stroke="white" stroke-width="0.452314" stroke-linecap="round" stroke-linejoin="round"/>
<path d="M92 11.5376L108.66 19.3745" stroke="white" stroke-width="0.452314" stroke-linecap="round" stroke-linejoin="round"/>
<path d="M154.154 70.2546L156.351 83.4837" stroke="white" stroke-width="0.452314" stroke-linecap="round" stroke-linejoin="round"/>
<path d="M27.6582 83.4839L46.5054 88.8675" stroke="white" stroke-width="0.452314" stroke-linecap="round" stroke-linejoin="round"/>
<path d="M85.9085 21.6489L80.2227 34.3413" stroke="white" stroke-width="0.452314" stroke-linecap="round" stroke-linejoin="round"/>
<path d="M98.1016 21.6489L103.778 34.3413" stroke="white" stroke-width="0.452314" stroke-linecap="round" stroke-linejoin="round"/>
<path d="M71.6055 63.8914L91.9984 64.888" stroke="white" stroke-width="0.452314" stroke-linecap="round" stroke-linejoin="round"/>
<path d="M71.6055 111.85L91.9984 112.855" stroke="white" stroke-width="0.452314" stroke-linecap="round" stroke-linejoin="round"/>
<path d="M92 112.855L112.402 111.85" stroke="white" stroke-width="0.452314" stroke-linecap="round" stroke-linejoin="round"/>
<path d="M92 64.888L112.402 63.8914" stroke="white" stroke-width="0.452314" stroke-linecap="round" stroke-linejoin="round"/>
<path d="M48.0492 13.5732L29.8438 19.3743" stroke="white" stroke-width="0.452314" stroke-linecap="round" stroke-linejoin="round"/>
<path d="M15.88 63.4658L13.1953 76.4563" stroke="white" stroke-width="0.452314" stroke-linecap="round" stroke-linejoin="round"/>
<path d="M135.949 13.5732L154.155 19.3743" stroke="white" stroke-width="0.452314" stroke-linecap="round" stroke-linejoin="round"/>
<path d="M168.123 63.4658L170.817 76.4563" stroke="white" stroke-width="0.452314" stroke-linecap="round" stroke-linejoin="round"/>
<path d="M13.1952 35.5161L4.10156 47.0841" stroke="white" stroke-width="0.452314" stroke-linecap="round" stroke-linejoin="round"/>
<path d="M170.812 35.5161L179.897 47.0841" stroke="white" stroke-width="0.452314" stroke-linecap="round" stroke-linejoin="round"/>
<path d="M92 21.947V34.9205" stroke="white" stroke-width="0.452314" stroke-linecap="round" stroke-linejoin="round"/>
<path d="M176.906 55.5603L179.898 68.2782" stroke="white" stroke-width="0.452314" stroke-linecap="round" stroke-linejoin="round"/>
<path d="M7.10266 55.5603L4.10156 68.2782" stroke="white" stroke-width="0.452314" stroke-linecap="round" stroke-linejoin="round"/>
<path d="M135.949 100.282L154.155 95.0776" stroke="white" stroke-width="0.452314" stroke-linecap="round" stroke-linejoin="round"/>
<path d="M29.8438 95.0776L48.0492 100.282" stroke="white" stroke-width="0.452314" stroke-linecap="round" stroke-linejoin="round"/>
<path d="M135.949 75.4594L154.155 70.2546" stroke="white" stroke-width="0.452314" stroke-linecap="round" stroke-linejoin="round"/>
<path d="M29.8438 70.2546L48.0492 75.4594" stroke="white" stroke-width="0.452314" stroke-linecap="round" stroke-linejoin="round"/>
<path d="M112.402 63.8912L131.403 60.9524" stroke="white" stroke-width="0.452314" stroke-linecap="round" stroke-linejoin="round"/>
<path d="M112.402 111.85L131.403 108.92" stroke="white" stroke-width="0.452314" stroke-linecap="round" stroke-linejoin="round"/>
<path d="M52.5957 108.92L71.6056 111.85" stroke="white" stroke-width="0.452314" stroke-linecap="round" stroke-linejoin="round"/>
<path d="M52.5957 60.9524L71.6056 63.8912" stroke="white" stroke-width="0.452314" stroke-linecap="round" stroke-linejoin="round"/>
<path d="M4.10053 47.0842L1 59.4955" stroke="white" stroke-width="0.452314" stroke-linecap="round" stroke-linejoin="round"/>
<path d="M179.898 47.0842L182.999 59.4955" stroke="white" stroke-width="0.452314" stroke-linecap="round" stroke-linejoin="round"/>
<path d="M182.999 59.4958L179.898 71.9156" stroke="white" stroke-width="0.452314" stroke-linecap="round" stroke-linejoin="round"/>
<path d="M1 59.4958L4.10053 71.9156" stroke="white" stroke-width="0.452314" stroke-linecap="round" stroke-linejoin="round"/>
<path d="M154.154 19.3748L168.12 27.9187" stroke="white" stroke-width="0.452314" stroke-linecap="round" stroke-linejoin="round"/>
<path d="M29.8448 19.3748L15.8789 27.9187" stroke="white" stroke-width="0.452314" stroke-linecap="round" stroke-linejoin="round"/>
<path d="M71.6056 8.77759L52.5957 9.48461" stroke="white" stroke-width="0.452314" stroke-linecap="round" stroke-linejoin="round"/>
<path d="M112.402 8.77759L131.403 9.48461" stroke="white" stroke-width="0.452314" stroke-linecap="round" stroke-linejoin="round"/>
<path d="M179.898 68.2788L176.906 80.3919" stroke="white" stroke-width="0.452314" stroke-linecap="round" stroke-linejoin="round"/>
<path d="M4.10156 68.2788L7.10266 80.3919" stroke="white" stroke-width="0.452314" stroke-linecap="round" stroke-linejoin="round"/>
<path d="M7.10156 80.3916L15.8789 91.0822" stroke="white" stroke-width="0.452314" stroke-linecap="round" stroke-linejoin="round"/>
<path d="M176.909 80.3916L168.123 91.0822" stroke="white" stroke-width="0.452314" stroke-linecap="round" stroke-linejoin="round"/>
<path d="M168.123 27.918L176.909 38.6085" stroke="white" stroke-width="0.452314" stroke-linecap="round" stroke-linejoin="round"/>
<path d="M15.8789 27.918L7.10156 38.6085" stroke="white" stroke-width="0.452314" stroke-linecap="round" stroke-linejoin="round"/>
<path d="M170.817 76.4561L168.123 88.2966" stroke="white" stroke-width="0.452314" stroke-linecap="round" stroke-linejoin="round"/>
<path d="M92.001 11.5376L80.2227 20.7715" stroke="white" stroke-width="0.452314" stroke-linecap="round" stroke-linejoin="round"/>
<path d="M13.1953 76.4561L15.88 88.2966" stroke="white" stroke-width="0.452314" stroke-linecap="round" stroke-linejoin="round"/>
<path d="M92 11.5376L103.778 20.7715" stroke="white" stroke-width="0.452314" stroke-linecap="round" stroke-linejoin="round"/>
<path d="M13.1953 76.4561L27.6584 83.4837" stroke="white" stroke-width="0.452314" stroke-linecap="round" stroke-linejoin="round"/>
<path d="M92.0002 11.5375L75.3496 6.96313" stroke="white" stroke-width="0.452314" stroke-linecap="round" stroke-linejoin="round"/>
<path d="M92 11.5375L108.66 6.96313" stroke="white" stroke-width="0.452314" stroke-linecap="round" stroke-linejoin="round"/>
<path d="M156.351 83.4839L154.154 95.0774" stroke="white" stroke-width="0.452314" stroke-linecap="round" stroke-linejoin="round"/>
<path d="M156.35 83.4837L170.813 76.4561" stroke="white" stroke-width="0.452314" stroke-linecap="round" stroke-linejoin="round"/>
<path d="M29.8457 95.0774L27.6582 83.4839" stroke="white" stroke-width="0.452314" stroke-linecap="round" stroke-linejoin="round"/>
<path d="M131.402 60.953L147.728 56.2849" stroke="white" stroke-width="0.452314" stroke-linecap="round" stroke-linejoin="round"/>
<path d="M36.2793 56.2849L52.5955 60.953" stroke="white" stroke-width="0.452314" stroke-linecap="round" stroke-linejoin="round"/>
<path d="M131.402 108.919L147.728 104.251" stroke="white" stroke-width="0.452314" stroke-linecap="round" stroke-linejoin="round"/>
<path d="M36.2793 104.251L52.5955 108.919" stroke="white" stroke-width="0.452314" stroke-linecap="round" stroke-linejoin="round"/>
<path d="M46.5059 88.8677L48.0516 100.282" stroke="white" stroke-width="0.452314" stroke-linecap="round" stroke-linejoin="round"/>
<path d="M137.504 88.8677L135.949 100.282" stroke="white" stroke-width="0.452314" stroke-linecap="round" stroke-linejoin="round"/>
<path d="M52.5955 9.48438L36.2793 13.5902" stroke="white" stroke-width="0.452314" stroke-linecap="round" stroke-linejoin="round"/>
<path d="M131.402 9.48438L147.728 13.5902" stroke="white" stroke-width="0.452314" stroke-linecap="round" stroke-linejoin="round"/>
<path d="M68.4512 92.2573L69.2466 103.561" stroke="white" stroke-width="0.452314" stroke-linecap="round" stroke-linejoin="round"/>
<path d="M115.556 92.2573L114.752 103.561" stroke="white" stroke-width="0.452314" stroke-linecap="round" stroke-linejoin="round"/>
<path d="M15.8789 63.4658L29.8448 70.255" stroke="white" stroke-width="0.452314" stroke-linecap="round" stroke-linejoin="round"/>
<path d="M15.8789 88.2971L29.8448 95.0777" stroke="white" stroke-width="0.452314" stroke-linecap="round" stroke-linejoin="round"/>
<path d="M154.154 70.255L168.12 63.4658" stroke="white" stroke-width="0.452314" stroke-linecap="round" stroke-linejoin="round"/>
<path d="M154.154 95.0777L168.12 88.2971" stroke="white" stroke-width="0.452314" stroke-linecap="round" stroke-linejoin="round"/>
<path d="M92 93.4163V104.678" stroke="white" stroke-width="0.452314" stroke-linecap="round" stroke-linejoin="round"/>
<path d="M15.8789 88.2971L23.7523 98.1699" stroke="white" stroke-width="0.452314" stroke-linecap="round" stroke-linejoin="round"/>
<path d="M168.121 88.2971L160.248 98.1699" stroke="white" stroke-width="0.452314" stroke-linecap="round" stroke-linejoin="round"/>
<path d="M147.729 13.5906L160.248 20.8312" stroke="white" stroke-width="0.452314" stroke-linecap="round" stroke-linejoin="round"/>
<path d="M160.248 98.1697L147.729 105.41" stroke="white" stroke-width="0.452314" stroke-linecap="round" stroke-linejoin="round"/>
<path d="M91.9988 11.5376L85.9062 21.6489" stroke="white" stroke-width="0.452314" stroke-linecap="round" stroke-linejoin="round"/>
<path d="M23.752 98.1697L36.2806 105.41" stroke="white" stroke-width="0.452314" stroke-linecap="round" stroke-linejoin="round"/>
<path d="M92 11.5376L98.1016 21.6489" stroke="white" stroke-width="0.452314" stroke-linecap="round" stroke-linejoin="round"/>
<path d="M36.2806 13.5906L23.752 20.8312" stroke="white" stroke-width="0.452314" stroke-linecap="round" stroke-linejoin="round"/>
<path d="M92 49.5631L108.66 48.7454" stroke="white" stroke-width="0.452314" stroke-linecap="round" stroke-linejoin="round"/>
<path d="M92 117.395L108.66 116.577" stroke="white" stroke-width="0.452314" stroke-linecap="round" stroke-linejoin="round"/>
<path d="M75.3496 48.7454L92.0002 49.5631" stroke="white" stroke-width="0.452314" stroke-linecap="round" stroke-linejoin="round"/>
<path d="M75.3496 116.577L92.0002 117.395" stroke="white" stroke-width="0.452314" stroke-linecap="round" stroke-linejoin="round"/>
<path d="M92 11.5376V21.947" stroke="white" stroke-width="0.452314" stroke-linecap="round" stroke-linejoin="round"/>
<path d="M108.658 48.746L124.179 46.3523" stroke="white" stroke-width="0.452314" stroke-linecap="round" stroke-linejoin="round"/>
<path d="M59.8281 46.3523L75.3488 48.746" stroke="white" stroke-width="0.452314" stroke-linecap="round" stroke-linejoin="round"/>
<path d="M108.658 116.578L124.179 114.184" stroke="white" stroke-width="0.452314" stroke-linecap="round" stroke-linejoin="round"/>
<path d="M59.8281 114.184L75.3488 116.578" stroke="white" stroke-width="0.452314" stroke-linecap="round" stroke-linejoin="round"/>
<path d="M147.729 56.2845L160.248 50.2024" stroke="white" stroke-width="0.452314" stroke-linecap="round" stroke-linejoin="round"/>
<path d="M147.729 104.252L160.248 98.1697" stroke="white" stroke-width="0.452314" stroke-linecap="round" stroke-linejoin="round"/>
<path d="M23.752 50.2024L36.2806 56.2845" stroke="white" stroke-width="0.452314" stroke-linecap="round" stroke-linejoin="round"/>
<path d="M23.752 98.1697L36.2806 104.252" stroke="white" stroke-width="0.452314" stroke-linecap="round" stroke-linejoin="round"/>
<path d="M170.814 76.4564L179.899 68.2788" stroke="white" stroke-width="0.452314" stroke-linecap="round" stroke-linejoin="round"/>
<path d="M36.2798 104.252L29.8438 95.0776" stroke="white" stroke-width="0.452314" stroke-linecap="round" stroke-linejoin="round"/>
<path d="M108.658 6.96345L124.179 5.9668" stroke="white" stroke-width="0.452314" stroke-linecap="round" stroke-linejoin="round"/>
<path d="M154.156 95.0776L147.729 104.252" stroke="white" stroke-width="0.452314" stroke-linecap="round" stroke-linejoin="round"/>
<path d="M4.10156 68.2788L13.1952 76.4564" stroke="white" stroke-width="0.452314" stroke-linecap="round" stroke-linejoin="round"/>
<path d="M75.3488 6.96345L59.8281 5.9668" stroke="white" stroke-width="0.452314" stroke-linecap="round" stroke-linejoin="round"/>
<path d="M168.123 63.4654L176.909 55.5603" stroke="white" stroke-width="0.452314" stroke-linecap="round" stroke-linejoin="round"/>
<path d="M168.123 88.2967L176.909 80.3916" stroke="white" stroke-width="0.452314" stroke-linecap="round" stroke-linejoin="round"/>
<path d="M7.10156 55.5603L15.8789 63.4654" stroke="white" stroke-width="0.452314" stroke-linecap="round" stroke-linejoin="round"/>
<path d="M7.10156 80.3916L15.8789 88.2967" stroke="white" stroke-width="0.452314" stroke-linecap="round" stroke-linejoin="round"/>
<path d="M92.001 11.5378L80.2227 5.56641" stroke="white" stroke-width="0.452314" stroke-linecap="round" stroke-linejoin="round"/>
<path d="M92 11.5378L103.778 5.56641" stroke="white" stroke-width="0.452314" stroke-linecap="round" stroke-linejoin="round"/>
<path d="M124.18 46.3517L137.504 42.5439" stroke="white" stroke-width="0.452314" stroke-linecap="round" stroke-linejoin="round"/>
<path d="M137.504 8.62409L124.18 4.80786" stroke="white" stroke-width="0.452314" stroke-linecap="round" stroke-linejoin="round"/>
<path d="M124.18 114.184L137.504 110.376" stroke="white" stroke-width="0.452314" stroke-linecap="round" stroke-linejoin="round"/>
<path d="M59.83 4.80786L46.5059 8.62409" stroke="white" stroke-width="0.452314" stroke-linecap="round" stroke-linejoin="round"/>
<path d="M46.5059 42.5439L59.83 46.3517" stroke="white" stroke-width="0.452314" stroke-linecap="round" stroke-linejoin="round"/>
<path d="M46.5059 110.376L59.83 114.184" stroke="white" stroke-width="0.452314" stroke-linecap="round" stroke-linejoin="round"/>
<path d="M48.0508 100.282L52.5976 108.92" stroke="white" stroke-width="0.452314" stroke-linecap="round" stroke-linejoin="round"/>
<path d="M135.949 100.282L131.402 108.92" stroke="white" stroke-width="0.452314" stroke-linecap="round" stroke-linejoin="round"/>
<path d="M46.5029 110.376L36.2793 104.251" stroke="white" stroke-width="0.452314" stroke-linecap="round" stroke-linejoin="round"/>
<path d="M59.83 5.9668L46.5059 8.62453" stroke="white" stroke-width="0.452314" stroke-linecap="round" stroke-linejoin="round"/>
<path d="M147.728 104.251L137.504 110.376" stroke="white" stroke-width="0.452314" stroke-linecap="round" stroke-linejoin="round"/>
<path d="M179.898 68.2783L182.999 59.4958" stroke="white" stroke-width="0.452314" stroke-linecap="round" stroke-linejoin="round"/>
<path d="M124.18 5.9668L137.504 8.62453" stroke="white" stroke-width="0.452314" stroke-linecap="round" stroke-linejoin="round"/>
<path d="M1 59.4958L4.10053 68.2783" stroke="white" stroke-width="0.452314" stroke-linecap="round" stroke-linejoin="round"/>
<path d="M23.7523 20.8313L15.8789 27.9186" stroke="white" stroke-width="0.452314" stroke-linecap="round" stroke-linejoin="round"/>
<path d="M15.8789 43.1157L23.7523 50.203" stroke="white" stroke-width="0.452314" stroke-linecap="round" stroke-linejoin="round"/>
<path d="M168.121 27.9186L160.248 20.8313" stroke="white" stroke-width="0.452314" stroke-linecap="round" stroke-linejoin="round"/>
<path d="M15.8789 91.082L23.7523 98.1693" stroke="white" stroke-width="0.452314" stroke-linecap="round" stroke-linejoin="round"/>
<path d="M160.248 50.203L168.121 43.1157" stroke="white" stroke-width="0.452314" stroke-linecap="round" stroke-linejoin="round"/>
<path d="M160.248 98.1693L168.121 91.082" stroke="white" stroke-width="0.452314" stroke-linecap="round" stroke-linejoin="round"/>
<path d="M4.10156 47.0842L7.10266 55.56" stroke="white" stroke-width="0.452314" stroke-linecap="round" stroke-linejoin="round"/>
<path d="M176.906 55.56L179.898 47.0842" stroke="white" stroke-width="0.452314" stroke-linecap="round" stroke-linejoin="round"/>
<path d="M4.10156 71.9155L7.10266 80.3913" stroke="white" stroke-width="0.452314" stroke-linecap="round" stroke-linejoin="round"/>
<path d="M176.906 80.3913L179.898 71.9155" stroke="white" stroke-width="0.452314" stroke-linecap="round" stroke-linejoin="round"/>
<path d="M179.898 47.0852L176.906 38.6094" stroke="white" stroke-width="0.452314" stroke-linecap="round" stroke-linejoin="round"/>
<path d="M7.10266 38.6094L4.10156 47.0852" stroke="white" stroke-width="0.452314" stroke-linecap="round" stroke-linejoin="round"/>
<path d="M69.248 103.562L71.6073 111.85" stroke="white" stroke-width="0.452314" stroke-linecap="round" stroke-linejoin="round"/>
<path d="M114.753 103.562L112.402 111.85" stroke="white" stroke-width="0.452314" stroke-linecap="round" stroke-linejoin="round"/>
<path d="M36.2793 37.5696L46.5029 42.5443" stroke="white" stroke-width="0.452314" stroke-linecap="round" stroke-linejoin="round"/>
<path d="M36.2793 105.41L46.5029 110.376" stroke="white" stroke-width="0.452314" stroke-linecap="round" stroke-linejoin="round"/>
<path d="M46.5029 8.62427L36.2793 13.5905" stroke="white" stroke-width="0.452314" stroke-linecap="round" stroke-linejoin="round"/>
<path d="M137.504 42.5443L147.728 37.5696" stroke="white" stroke-width="0.452314" stroke-linecap="round" stroke-linejoin="round"/>
<path d="M137.504 110.376L147.728 105.41" stroke="white" stroke-width="0.452314" stroke-linecap="round" stroke-linejoin="round"/>
<path d="M147.728 13.5905L137.504 8.62427" stroke="white" stroke-width="0.452314" stroke-linecap="round" stroke-linejoin="round"/>
<path d="M92 104.677V112.855" stroke="white" stroke-width="0.452314" stroke-linecap="round" stroke-linejoin="round"/>
<path d="M92 11.5377L98.1016 4.68896" stroke="white" stroke-width="0.452314" stroke-linecap="round" stroke-linejoin="round"/>
<path d="M91.9988 11.5377L85.9062 4.68896" stroke="white" stroke-width="0.452314" stroke-linecap="round" stroke-linejoin="round"/>
<path d="M13.1953 35.5161L15.88 43.1145" stroke="white" stroke-width="0.452314" stroke-linecap="round" stroke-linejoin="round"/>
<path d="M168.123 43.1145L170.817 35.5161" stroke="white" stroke-width="0.452314" stroke-linecap="round" stroke-linejoin="round"/>
<path d="M170.817 35.5164L168.123 27.918" stroke="white" stroke-width="0.452314" stroke-linecap="round" stroke-linejoin="round"/>
<path d="M15.88 27.918L13.1953 35.5164" stroke="white" stroke-width="0.452314" stroke-linecap="round" stroke-linejoin="round"/>
<path d="M92 34.9203L103.778 34.3411" stroke="white" stroke-width="0.452314" stroke-linecap="round" stroke-linejoin="round"/>
<path d="M92 118L103.778 117.421" stroke="white" stroke-width="0.452314" stroke-linecap="round" stroke-linejoin="round"/>
<path d="M103.778 1.57949L92 1.00024" stroke="white" stroke-width="0.452314" stroke-linecap="round" stroke-linejoin="round"/>
<path d="M92.001 1.00024L80.2227 1.57949" stroke="white" stroke-width="0.452314" stroke-linecap="round" stroke-linejoin="round"/>
<path d="M80.2227 117.421L92.001 118" stroke="white" stroke-width="0.452314" stroke-linecap="round" stroke-linejoin="round"/>
<path d="M80.2227 34.3411L92.001 34.9203" stroke="white" stroke-width="0.452314" stroke-linecap="round" stroke-linejoin="round"/>
<path d="M103.777 5.5661L114.751 3.27466" stroke="white" stroke-width="0.452314" stroke-linecap="round" stroke-linejoin="round"/>
<path d="M80.2219 5.5661L69.248 3.27466" stroke="white" stroke-width="0.452314" stroke-linecap="round" stroke-linejoin="round"/>
<path d="M80.2219 1.57935L69.248 3.2745" stroke="white" stroke-width="0.452314" stroke-linecap="round" stroke-linejoin="round"/>
<path d="M69.248 32.6465L80.2219 34.3416" stroke="white" stroke-width="0.452314" stroke-linecap="round" stroke-linejoin="round"/>
<path d="M69.248 115.726L80.2219 117.421" stroke="white" stroke-width="0.452314" stroke-linecap="round" stroke-linejoin="round"/>
<path d="M114.751 3.2745L103.777 1.57935" stroke="white" stroke-width="0.452314" stroke-linecap="round" stroke-linejoin="round"/>
<path d="M103.777 117.421L114.751 115.726" stroke="white" stroke-width="0.452314" stroke-linecap="round" stroke-linejoin="round"/>
<path d="M103.777 34.3416L114.751 32.6465" stroke="white" stroke-width="0.452314" stroke-linecap="round" stroke-linejoin="round"/>
<path d="M92 11.5378V4.39087" stroke="white" stroke-width="0.452314" stroke-linecap="round" stroke-linejoin="round"/>
<path d="M29.8438 31.7854L36.2798 37.5694" stroke="white" stroke-width="0.452314" stroke-linecap="round" stroke-linejoin="round"/>
<path d="M154.156 19.3746L147.729 13.5906" stroke="white" stroke-width="0.452314" stroke-linecap="round" stroke-linejoin="round"/>
<path d="M36.2798 13.5906L29.8438 19.3746" stroke="white" stroke-width="0.452314" stroke-linecap="round" stroke-linejoin="round"/>
<path d="M147.729 37.5694L154.156 31.7854" stroke="white" stroke-width="0.452314" stroke-linecap="round" stroke-linejoin="round"/>
<path d="M131.402 108.92L124.18 114.184" stroke="white" stroke-width="0.452314" stroke-linecap="round" stroke-linejoin="round"/>
<path d="M52.5957 108.92L59.8272 114.184" stroke="white" stroke-width="0.452314" stroke-linecap="round" stroke-linejoin="round"/>
<path d="M124.18 5.96646L114.752 3.27466" stroke="white" stroke-width="0.452314" stroke-linecap="round" stroke-linejoin="round"/>
<path d="M59.8281 29.9543L69.2472 32.6462" stroke="white" stroke-width="0.452314" stroke-linecap="round" stroke-linejoin="round"/>
<path d="M114.752 32.6462L124.18 29.9543" stroke="white" stroke-width="0.452314" stroke-linecap="round" stroke-linejoin="round"/>
<path d="M69.2472 3.27466L59.8281 5.96646" stroke="white" stroke-width="0.452314" stroke-linecap="round" stroke-linejoin="round"/>
<path d="M29.8457 19.3748L27.6582 25.5846" stroke="white" stroke-width="0.452314" stroke-linecap="round" stroke-linejoin="round"/>
<path d="M156.351 25.5846L154.154 19.3748" stroke="white" stroke-width="0.452314" stroke-linecap="round" stroke-linejoin="round"/>
<path d="M154.154 31.7861L156.351 25.5847" stroke="white" stroke-width="0.452314" stroke-linecap="round" stroke-linejoin="round"/>
<path d="M27.6582 25.5847L29.8457 31.7861" stroke="white" stroke-width="0.452314" stroke-linecap="round" stroke-linejoin="round"/>
<path d="M59.8281 114.184L69.2472 115.726" stroke="white" stroke-width="0.452314" stroke-linecap="round" stroke-linejoin="round"/>
<path d="M124.18 114.184L114.752 115.726" stroke="white" stroke-width="0.452314" stroke-linecap="round" stroke-linejoin="round"/>
<path d="M69.2472 3.27466L59.8281 4.80796" stroke="white" stroke-width="0.452314" stroke-linecap="round" stroke-linejoin="round"/>
<path d="M114.752 3.27466L124.18 4.80796" stroke="white" stroke-width="0.452314" stroke-linecap="round" stroke-linejoin="round"/>
<path d="M59.8272 5.9668L52.5957 9.48488" stroke="white" stroke-width="0.452314" stroke-linecap="round" stroke-linejoin="round"/>
<path d="M124.18 29.9546L131.402 26.4365" stroke="white" stroke-width="0.452314" stroke-linecap="round" stroke-linejoin="round"/>
<path d="M52.5957 26.4365L59.8272 29.9546" stroke="white" stroke-width="0.452314" stroke-linecap="round" stroke-linejoin="round"/>
<path d="M131.402 9.48488L124.18 5.9668" stroke="white" stroke-width="0.452314" stroke-linecap="round" stroke-linejoin="round"/>
<path d="M112.401 111.85L108.658 116.577" stroke="white" stroke-width="0.452314" stroke-linecap="round" stroke-linejoin="round"/>
<path d="M71.6055 111.85L75.3478 116.577" stroke="white" stroke-width="0.452314" stroke-linecap="round" stroke-linejoin="round"/>
<path d="M48.0508 22.3469L52.5976 26.4357" stroke="white" stroke-width="0.452314" stroke-linecap="round" stroke-linejoin="round"/>
<path d="M135.949 13.5732L131.402 9.48438" stroke="white" stroke-width="0.452314" stroke-linecap="round" stroke-linejoin="round"/>
<path d="M131.402 26.4357L135.949 22.3469" stroke="white" stroke-width="0.452314" stroke-linecap="round" stroke-linejoin="round"/>
<path d="M52.5976 9.48438L48.0508 13.5732" stroke="white" stroke-width="0.452314" stroke-linecap="round" stroke-linejoin="round"/>
<path d="M85.9085 4.68855L80.2227 1.57935" stroke="white" stroke-width="0.452314" stroke-linecap="round" stroke-linejoin="round"/>
<path d="M98.1016 4.68855L103.778 1.57935" stroke="white" stroke-width="0.452314" stroke-linecap="round" stroke-linejoin="round"/>
<path d="M92 112.855V117.395" stroke="white" stroke-width="0.452314" stroke-linecap="round" stroke-linejoin="round"/>
<path d="M46.5059 17.9604L48.0516 22.3474" stroke="white" stroke-width="0.452314" stroke-linecap="round" stroke-linejoin="round"/>
<path d="M137.504 17.9602L135.949 13.5732" stroke="white" stroke-width="0.452314" stroke-linecap="round" stroke-linejoin="round"/>
<path d="M48.0516 13.5732L46.5059 17.9602" stroke="white" stroke-width="0.452314" stroke-linecap="round" stroke-linejoin="round"/>
<path d="M135.949 22.3474L137.504 17.9604" stroke="white" stroke-width="0.452314" stroke-linecap="round" stroke-linejoin="round"/>
<path d="M92 21.9471L98.1016 21.6489" stroke="white" stroke-width="0.452314" stroke-linecap="round" stroke-linejoin="round"/>
<path d="M85.9062 21.6489L91.9988 21.9471" stroke="white" stroke-width="0.452314" stroke-linecap="round" stroke-linejoin="round"/>
<path d="M91.9988 4.39087L85.9062 4.68901" stroke="white" stroke-width="0.452314" stroke-linecap="round" stroke-linejoin="round"/>
<path d="M98.1016 4.68901L92 4.39087" stroke="white" stroke-width="0.452314" stroke-linecap="round" stroke-linejoin="round"/>
<path d="M85.9085 4.68896L80.2227 5.56636" stroke="white" stroke-width="0.452314" stroke-linecap="round" stroke-linejoin="round"/>
<path d="M103.778 5.56636L98.1016 4.68896" stroke="white" stroke-width="0.452314" stroke-linecap="round" stroke-linejoin="round"/>
<path d="M98.1016 21.6486L103.778 20.7712" stroke="white" stroke-width="0.452314" stroke-linecap="round" stroke-linejoin="round"/>
<path d="M80.2227 20.7712L85.9085 21.6486" stroke="white" stroke-width="0.452314" stroke-linecap="round" stroke-linejoin="round"/>
<path d="M80.2219 5.56641L75.3496 6.96342" stroke="white" stroke-width="0.452314" stroke-linecap="round" stroke-linejoin="round"/>
<path d="M103.777 20.7718L108.659 19.3748" stroke="white" stroke-width="0.452314" stroke-linecap="round" stroke-linejoin="round"/>
<path d="M75.3496 19.3748L80.2219 20.7718" stroke="white" stroke-width="0.452314" stroke-linecap="round" stroke-linejoin="round"/>
<path d="M108.659 6.96342L103.777 5.56641" stroke="white" stroke-width="0.452314" stroke-linecap="round" stroke-linejoin="round"/>
<path d="M92 4.39056V1.00024" stroke="white" stroke-width="0.452314" stroke-linecap="round" stroke-linejoin="round"/>
<path d="M75.3496 116.577L80.2219 117.42" stroke="white" stroke-width="0.452314" stroke-linecap="round" stroke-linejoin="round"/>
<path d="M108.659 116.577L103.777 117.42" stroke="white" stroke-width="0.452314" stroke-linecap="round" stroke-linejoin="round"/>
<path d="M108.658 19.3747L112.401 17.5603" stroke="white" stroke-width="0.452314" stroke-linecap="round" stroke-linejoin="round"/>
<path d="M75.3478 6.96313L71.6055 8.77755" stroke="white" stroke-width="0.452314" stroke-linecap="round" stroke-linejoin="round"/>
<path d="M112.401 8.77755L108.658 6.96313" stroke="white" stroke-width="0.452314" stroke-linecap="round" stroke-linejoin="round"/>
<path d="M71.6055 17.5603L75.3478 19.3747" stroke="white" stroke-width="0.452314" stroke-linecap="round" stroke-linejoin="round"/>
<path d="M69.248 15.4392L71.6073 17.5603" stroke="white" stroke-width="0.452314" stroke-linecap="round" stroke-linejoin="round"/>
<path d="M71.6073 8.77759L69.248 10.8987" stroke="white" stroke-width="0.452314" stroke-linecap="round" stroke-linejoin="round"/>
<path d="M114.753 10.8987L112.402 8.77759" stroke="white" stroke-width="0.452314" stroke-linecap="round" stroke-linejoin="round"/>
<path d="M112.402 17.5603L114.753 15.4392" stroke="white" stroke-width="0.452314" stroke-linecap="round" stroke-linejoin="round"/>
<path d="M115.556 13.1646L114.752 10.8987" stroke="white" stroke-width="0.452314" stroke-linecap="round" stroke-linejoin="round"/>
<path d="M69.2466 10.8987L68.4512 13.1646" stroke="white" stroke-width="0.452314" stroke-linecap="round" stroke-linejoin="round"/>
<path d="M68.4512 13.1648L69.2466 15.4392" stroke="white" stroke-width="0.452314" stroke-linecap="round" stroke-linejoin="round"/>
<path d="M114.752 15.4392L115.556 13.1648" stroke="white" stroke-width="0.452314" stroke-linecap="round" stroke-linejoin="round"/>
<path d="M92 117.395V118" stroke="white" stroke-width="0.452314" stroke-linecap="round" stroke-linejoin="round"/>
</svg>
