<svg width="629" height="445" viewBox="0 0 629 445" fill="none" xmlns="http://www.w3.org/2000/svg">
<path d="M330.966 11.8971L331.918 11.5919L331.695 10.8971H330.966V11.8971ZM140.858 11.8971V10.8971H140.135L139.909 11.5842L140.858 11.8971ZM0.462857 438L-0.486916 437.687L-0.919512 439H0.462857V438ZM123.923 438V439H124.661L124.879 438.295L123.923 438ZM149.599 354.965V353.965H148.861L148.643 354.669L149.599 354.965ZM313.485 354.965L314.448 354.698L314.246 353.965H313.485V354.965ZM336.429 438L335.465 438.266L335.667 439H336.429V438ZM467.537 438V439H468.908L468.489 437.695L467.537 438ZM179.098 262.096L178.149 261.783L177.715 263.096H179.098V262.096ZM230.995 104.766V103.766H230.272L230.046 104.452L230.995 104.766ZM234.273 104.766L235.225 104.458L235.001 103.766H234.273V104.766ZM285.078 262.096V263.096H286.451L286.029 261.789L285.078 262.096ZM330.966 10.8971H140.858V12.8971H330.966V10.8971ZM139.909 11.5842L-0.486916 437.687L1.41263 438.313L141.808 12.2101L139.909 11.5842ZM0.462857 439H123.923V437H0.462857V439ZM124.879 438.295L150.554 355.26L148.643 354.669L122.968 437.705L124.879 438.295ZM149.599 355.965H313.485V353.965H149.599V355.965ZM312.521 355.231L335.465 438.266L337.392 437.734L314.448 354.698L312.521 355.231ZM336.429 439H467.537V437H336.429V439ZM468.489 437.695L331.918 11.5919L330.013 12.2024L466.585 438.305L468.489 437.695ZM180.048 262.409L231.945 105.079L230.046 104.452L178.149 261.783L180.048 262.409ZM230.995 105.766H234.273V103.766H230.995V105.766ZM233.322 105.073L284.126 262.403L286.029 261.789L235.225 104.458L233.322 105.073ZM285.078 261.096H179.098V263.096H285.078V261.096ZM451.149 0.971428V-0.0285721H450.149V0.971428H451.149ZM451.149 438H450.149V439H451.149V438ZM552.211 438V439H553.211V438H552.211ZM552.211 369.714L553.196 369.538L551.211 369.714H552.211ZM554.943 154.478H553.943L555.89 154.798L554.943 154.478ZM554.943 0.971428H555.943V-0.0285721H554.943V0.971428ZM450.149 0.971428V438H452.149V0.971428H450.149ZM451.149 439H552.211V437H451.149V439ZM553.211 438V369.714H551.211V438H553.211ZM551.227 369.89C555.904 396.028 566.665 415.004 584.416 427.416C602.134 439.805 626.68 445.555 658.737 445.555V443.555C626.879 443.555 602.805 437.834 585.562 425.777C568.35 413.742 557.805 395.297 553.196 369.538L551.227 369.89ZM658.737 445.555C709.86 445.555 742.265 437.097 761.76 411.15C771.483 398.209 777.926 381.004 781.944 358.538C785.963 336.072 787.568 308.279 787.568 274.114H785.568C785.568 308.235 783.964 335.891 779.976 358.186C775.988 380.481 769.627 397.35 760.161 409.948C741.28 435.079 709.769 443.555 658.737 443.555V445.555ZM787.568 274.114C787.568 239.95 786.031 212.161 782.185 189.698C778.338 167.237 772.172 150.035 762.865 137.096C744.194 111.137 713.149 102.673 664.2 102.673V104.673C713.036 104.673 743.175 113.144 761.242 138.263C770.304 150.863 776.395 167.736 780.213 190.036C784.032 212.334 785.568 239.993 785.568 274.114H787.568ZM664.2 102.673C633 102.673 608.524 106.501 590.308 114.851C572.047 123.22 560.099 136.125 553.996 154.157L555.89 154.798C561.805 137.322 573.348 124.824 591.141 116.669C608.98 108.493 633.123 104.673 664.2 104.673V102.673ZM555.943 154.478V0.971428H553.943V154.478H555.943ZM554.943 -0.0285721H451.149V1.97143H554.943V-0.0285721ZM555.943 322.187V253.355H553.943V322.187H555.943ZM555.943 253.355C555.943 231.631 560.833 216.391 571.266 206.556C581.713 196.708 597.927 192.079 621.043 192.079V190.079C597.726 190.079 580.889 194.737 569.894 205.101C558.886 215.478 553.943 231.377 553.943 253.355H555.943ZM621.043 192.079C633.743 192.079 643.499 192.594 651.023 194.498C658.503 196.391 663.712 199.64 667.401 205.092C671.123 210.593 673.37 218.44 674.67 229.681C675.969 240.911 676.311 255.404 676.311 274.114H678.311C678.311 255.404 677.97 240.808 676.657 229.452C675.345 218.107 673.051 209.873 669.057 203.971C665.03 198.019 659.347 194.542 651.514 192.559C643.725 190.588 633.746 190.079 621.043 190.079V192.079ZM676.311 274.114C676.311 292.825 675.934 307.312 674.501 318.535C673.066 329.767 670.586 337.603 666.472 343.098C662.387 348.556 656.601 351.823 648.28 353.725C639.925 355.635 629.1 356.15 615.034 356.15V358.15C629.102 358.15 640.129 357.64 648.726 355.675C657.357 353.702 663.623 350.243 668.073 344.297C672.496 338.389 675.034 330.143 676.485 318.789C677.936 307.426 678.311 292.824 678.311 274.114H676.311ZM615.034 356.15C596.247 356.15 581.426 353.557 571.335 348.011C566.305 345.246 562.469 341.757 559.886 337.502C557.305 333.25 555.943 328.176 555.943 322.187H553.943C553.943 328.49 555.38 333.933 558.177 338.54C560.972 343.145 565.091 346.861 570.372 349.763C580.903 355.552 596.128 358.15 615.034 358.15V356.15Z" fill="black"/>
<path d="M375.966 11.8971H185.858L45.4629 438H168.923L194.599 354.965H358.485L381.429 438H512.537L375.966 11.8971ZM224.098 262.096L275.995 104.766H279.273L330.078 262.096H224.098ZM496.149 0.971429V438H597.211V369.714C606.498 421.611 639.822 444.555 703.737 444.555C805.893 444.555 831.568 410.686 831.568 274.114C831.568 137.543 806.985 103.673 709.2 103.673C646.923 103.673 611.961 118.969 599.943 154.478V0.971429H496.149ZM599.943 322.187V253.355C599.943 209.653 619.609 191.079 666.043 191.079C716.848 191.079 722.311 199.273 722.311 274.114C722.311 348.955 716.302 357.15 660.034 357.15C622.341 357.15 599.943 346.77 599.943 322.187Z" fill="black"/>
</svg>
