<svg viewBox="0 0 319 240" fill="none" xmlns="http://www.w3.org/2000/svg">
<path d="M123 44L123.952 43.6948L123.73 43H123V44ZM53.4 44V43H52.6766L52.4502 43.6871L53.4 44ZM2 200L1.05023 199.687L0.61763 201H2V200ZM47.2 200V201H47.9375L48.1554 200.295L47.2 200ZM56.6 169.6V168.6H55.8625L55.6446 169.305L56.6 169.6ZM116.6 169.6L117.564 169.334L117.361 168.6H116.6V169.6ZM125 200L124.036 200.266L124.239 201H125V200ZM173 200V201H174.371L173.952 199.695L173 200ZM67.4 135.6L66.4503 135.287L66.0171 136.6H67.4V135.6ZM86.4 78V77H85.6769L85.4503 77.6867L86.4 78ZM87.6 78L88.5516 77.6927L88.3279 77H87.6V78ZM106.2 135.6V136.6H107.574L107.152 135.293L106.2 135.6ZM123 43H53.4V45H123V43ZM52.4502 43.6871L1.05023 199.687L2.94977 200.313L54.3498 44.3129L52.4502 43.6871ZM2 201H47.2V199H2V201ZM48.1554 200.295L57.5554 169.895L55.6446 169.305L46.2446 199.705L48.1554 200.295ZM56.6 170.6H116.6V168.6H56.6V170.6ZM115.636 169.866L124.036 200.266L125.964 199.734L117.564 169.334L115.636 169.866ZM125 201H173V199H125V201ZM173.952 199.695L123.952 43.6948L122.048 44.3052L172.048 200.305L173.952 199.695ZM68.3497 135.913L87.3497 78.3133L85.4503 77.6867L66.4503 135.287L68.3497 135.913ZM86.4 79H87.6V77H86.4V79ZM86.6484 78.3073L105.248 135.907L107.152 135.293L88.5516 77.6927L86.6484 78.3073ZM106.2 134.6H67.4V136.6H106.2V134.6ZM167 40V39H166V40H167ZM167 200H166V201H167V200ZM204 200V201H205V200H204ZM204 175L204.984 174.824L203 175H204ZM205 96.2H204L205.947 96.5206L205 96.2ZM205 40H206V39H205V40ZM166 40V200H168V40H166ZM167 201H204V199H167V201ZM205 200V175H203V200H205ZM203.016 175.176C204.75 184.866 208.757 191.981 215.427 196.645C222.064 201.286 231.2 203.4 243 203.4V201.4C231.4 201.4 222.736 199.314 216.573 195.005C210.443 190.719 206.65 184.134 204.984 174.824L203.016 175.176ZM243 203.4C261.745 203.4 273.893 200.309 281.224 190.551C284.865 185.705 287.25 179.299 288.731 171.02C290.212 162.74 290.8 152.522 290.8 140H288.8C288.8 152.478 288.213 162.56 286.762 170.668C285.312 178.776 283.01 184.845 279.626 189.349C272.907 198.291 261.655 201.4 243 201.4V203.4ZM290.8 140C290.8 127.479 290.237 117.263 288.82 108.987C287.403 100.713 285.121 94.3109 281.637 89.4661C274.61 79.6961 262.957 76.6 245 76.6V78.6C262.843 78.6 273.59 81.7039 280.013 90.6339C283.254 95.1391 285.459 101.212 286.849 109.325C288.238 117.437 288.8 127.521 288.8 140H290.8ZM245 76.6C233.538 76.6 224.472 78.0043 217.683 81.1159C210.85 84.2481 206.347 89.1018 204.053 95.8794L205.947 96.5206C208.053 90.2982 212.15 85.8519 218.517 82.9341C224.928 79.9957 233.662 78.6 245 78.6V76.6ZM206 96.2V40H204V96.2H206ZM205 39H167V41H205V39ZM206 157.6V132.4H204V157.6H206ZM206 132.4C206 124.527 207.774 119.157 211.411 115.728C215.062 112.286 220.801 110.6 229.2 110.6V108.6C220.599 108.6 214.238 110.314 210.039 114.272C205.826 118.243 204 124.273 204 132.4H206ZM229.2 110.6C233.848 110.6 237.35 110.79 240.02 111.466C242.646 112.131 244.403 113.248 245.647 115.085C246.923 116.972 247.731 119.722 248.203 123.806C248.674 127.877 248.8 133.15 248.8 140H250.8C250.8 133.15 250.676 127.773 250.19 123.576C249.706 119.39 248.852 116.253 247.303 113.965C245.722 111.627 243.491 110.282 240.511 109.527C237.575 108.785 233.852 108.6 229.2 108.6V110.6ZM248.8 140C248.8 146.85 248.662 152.118 248.142 156.183C247.622 160.256 246.733 162.994 245.324 164.876C243.945 166.719 241.979 167.854 239.03 168.528C236.048 169.21 232.149 169.4 227 169.4V171.4C232.151 171.4 236.252 171.215 239.476 170.478C242.734 169.733 245.18 168.406 246.926 166.074C248.642 163.781 249.59 160.632 250.126 156.436C250.663 152.232 250.8 146.85 250.8 140H248.8ZM227 169.4C220.159 169.4 214.861 168.453 211.307 166.499C209.544 165.53 208.23 164.325 207.352 162.878C206.475 161.433 206 159.693 206 157.6H204C204 160.007 204.55 162.117 205.642 163.916C206.733 165.713 208.331 167.145 210.343 168.251C214.339 170.447 220.041 171.4 227 171.4V169.4Z" fill="black"/>
<path d="M140 44H70.4L19 200H64.2L73.6 169.6H133.6L142 200H190L140 44ZM84.4 135.6L103.4 78H104.6L123.2 135.6H84.4ZM184 40V200H221V175C224.4 194 236.6 202.4 260 202.4C297.4 202.4 306.8 190 306.8 140C306.8 90 297.8 77.6 262 77.6C239.2 77.6 226.4 83.2 222 96.2V40H184ZM222 157.6V132.4C222 116.4 229.2 109.6 246.2 109.6C264.8 109.6 266.8 112.6 266.8 140C266.8 167.4 264.6 170.4 244 170.4C230.2 170.4 222 166.6 222 157.6Z" fill="#101010"/>
</svg>
