<svg width="32" height="31" viewBox="0 0 32 32" fill="none" xmlns="http://www.w3.org/2000/svg">
    <path d="M7.408 16.823a2.263 2.263 0 012.263-2.263h3.586a2.263 2.263 0 012.263 2.263v5.434a2.263 2.263 0 01-2.263 2.263H9.67a2.263 2.263 0 01-2.263-2.263v-5.434zm-.229 8.31C7.18 28.417 9.84 31 13.122 31h3.604a6.035 6.035 0 006.035-6.034v-10.93A6.035 6.035 0 0016.726 8h-4.525c-2.653 0-4.809 2.216-4.828 4.868V.081H.133v30.768h7.046v-5.715zM31.812 24.52h-6.336v6.336h6.336V24.52z" fill="var(--colors-white)" />
</svg>